
<svg width="26px" height="32px" viewBox="0 0 26 32" version="1.1" xmlns="http://www.w3.org/2000/svg" xmlns:xlink="http://www.w3.org/1999/xlink">
    <polygon id="Path" fill="#000000" points="5.832 28.416 5.832 31.232 2.312 31.232 2.312 28.416 0.968 28.416 0.2 20.672 1.288 1.856 2.632 0.448 23.112 0.448 24.456 1.856 25.544 20.672 24.776 28.416 23.432 28.416 23.432 31.232 19.912 31.232 19.912 28.416"></polygon>
    <polygon id="Path" fill="#FFFFFF" points="2.888 4.864 22.856 4.864 22.856 2.304 2.888 2.304"></polygon>
    <path d="M2.312,23.296 C2.312,24.32 3.08,25.088 4.04,25.088 C5,25.088 5.832,24.32 5.832,23.296 C5.832,22.336 5,21.568 4.04,21.568 C3.08,21.568 2.312,22.336 2.312,23.296 Z" id="Path" fill="#FFFFFF"></path>
    <path d="M19.912,23.296 C19.912,24.32 20.744,25.088 21.704,25.088 C22.664,25.088 23.432,24.32 23.432,23.296 C23.432,22.336 22.664,21.568 21.704,21.568 C20.744,21.568 19.912,22.336 19.912,23.296 Z" id="Path" fill="#FFFFFF"></path>
    <polygon id="Path" fill="#FFFFFF" points="3.656 18.048 22.088 18.048 22.856 6.464 2.888 6.464"></polygon>
</svg>