<?xml version="1.0" encoding="UTF-8" standalone="no"?>
<svg width="34px" height="34px" viewBox="0 0 34 34" version="1.1" xmlns="http://www.w3.org/2000/svg" xmlns:xlink="http://www.w3.org/1999/xlink">
    <!-- Generator: Sketch 49.1 (51147) - http://www.bohemiancoding.com/sketch -->
    <title>Group 2</title>
    <desc>Created with Sketch.</desc>
    <defs></defs>
    <g id="Page-1" stroke="none" stroke-width="1" fill="none" fill-rule="evenodd">
        <g id="Group-2">
            <polygon id="Path" fill="#000000" points="7.208 0.232 27.048 0.232 28.136 1.384 28.136 21.352 26.024 23.4 8.104 23.4 5.992 21.352 5.992 1.384"></polygon>
            <path d="M7.016,19.112 C7.016,20.008 7.72,20.712 8.616,20.712 C9.512,20.712 10.216,20.008 10.216,19.112 C10.216,18.216 9.512,17.512 8.616,17.512 C7.72,17.512 7.016,18.216 7.016,19.112 Z" id="Path" fill="#FFFFFF"></path>
            <polygon id="Path" fill="#000000" points="29.864 33.32 22.248 25.128 23.592 25.128 33.768 33.32"></polygon>
            <polygon id="Path" fill="#000000" points="12.328 25.128 4.776 33.32 0.872 33.32 11.048 25.128"></polygon>
            <path d="M23.528,19.112 C23.528,20.008 24.296,20.712 25.192,20.712 C26.024,20.712 26.792,20.008 26.792,19.112 C26.792,18.216 26.024,17.512 25.192,17.512 C24.296,17.512 23.528,18.216 23.528,19.112 Z" id="Path" fill="#FFFFFF"></path>
            <polygon id="Path" fill="#FFFFFF" points="13.352 6.504 13.352 14.696 26.792 14.696 26.792 6.504"></polygon>
            <polygon id="Path" fill="#FFFFFF" points="7.464 1.64 7.464 5.352 12.328 5.352 12.328 1.64"></polygon>
        </g>
    </g>
</svg>