<?xml version="1.0" encoding="UTF-8" standalone="no"?>
<svg width="61px" height="26px" viewBox="0 0 61 26" version="1.1" xmlns="http://www.w3.org/2000/svg" xmlns:xlink="http://www.w3.org/1999/xlink">
    <!-- Generator: Sketch 49.1 (51147) - http://www.bohemiancoding.com/sketch -->
    <title>n</title>
    <desc>Created with Sketch.</desc>
    <defs></defs>
    <g id="Page-1" stroke="none" stroke-width="1" fill="none" fill-rule="evenodd">
        <path d="M53.248,16 C53.248,16.96 54.016,17.728 54.976,17.728 C55.936,17.728 56.704,16.96 56.704,16 C56.704,15.04 55.936,14.208 54.976,14.208 C54.016,14.208 53.248,15.04 53.248,16 Z M53.248,12.48 C53.248,13.44 54.016,14.208 54.976,14.208 C55.936,14.208 56.704,13.44 56.704,12.48 C56.704,11.52 55.936,10.688 54.976,10.688 C54.016,10.688 53.248,11.52 53.248,12.48 Z M53.248,8.96 C53.248,9.92 54.016,10.688 54.976,10.688 C55.936,10.688 56.704,9.92 56.704,8.96 C56.704,8 55.936,7.232 54.976,7.232 C54.016,7.232 53.248,8 53.248,8.96 Z M49.728,19.52 C49.728,20.48 50.496,21.248 51.456,21.248 C52.416,21.248 53.248,20.48 53.248,19.52 C53.248,18.496 52.416,17.728 51.456,17.728 C50.496,17.728 49.728,18.496 49.728,19.52 Z M49.728,5.44 C49.728,6.4 50.496,7.232 51.456,7.232 C52.416,7.232 53.248,6.4 53.248,5.44 C53.248,4.48 52.416,3.712 51.456,3.712 C50.496,3.712 49.728,4.48 49.728,5.44 Z M46.208,19.52 C46.208,20.48 46.976,21.248 47.936,21.248 C48.896,21.248 49.728,20.48 49.728,19.52 C49.728,18.496 48.896,17.728 47.936,17.728 C46.976,17.728 46.208,18.496 46.208,19.52 Z M46.208,5.44 C46.208,6.4 46.976,7.232 47.936,7.232 C48.896,7.232 49.728,6.4 49.728,5.44 C49.728,4.48 48.896,3.712 47.936,3.712 C46.976,3.712 46.208,4.48 46.208,5.44 Z M42.688,16 C42.688,16.96 43.456,17.728 44.48,17.728 C45.44,17.728 46.208,16.96 46.208,16 C46.208,15.04 45.44,14.208 44.48,14.208 C43.456,14.208 42.688,15.04 42.688,16 Z M42.688,12.48 C42.688,13.44 43.456,14.208 44.48,14.208 C45.44,14.208 46.208,13.44 46.208,12.48 C46.208,11.52 45.44,10.688 44.48,10.688 C43.456,10.688 42.688,11.52 42.688,12.48 Z M42.688,8.96 C42.688,9.92 43.456,10.688 44.48,10.688 C45.44,10.688 46.208,9.92 46.208,8.96 C46.208,8 45.44,7.232 44.48,7.232 C43.456,7.232 42.688,8 42.688,8.96 Z M35.648,12.48 C35.648,13.44 36.48,14.208 37.44,14.208 C38.4,14.208 39.168,13.44 39.168,12.48 C39.168,11.52 38.4,10.688 37.44,10.688 C36.48,10.688 35.648,11.52 35.648,12.48 Z M35.648,5.44 C35.648,6.4 36.48,7.232 37.44,7.232 C38.4,7.232 39.168,6.4 39.168,5.44 C39.168,4.48 38.4,3.712 37.44,3.712 C36.48,3.712 35.648,4.48 35.648,5.44 Z M32.192,12.48 C32.192,13.44 32.96,14.208 33.92,14.208 C34.88,14.208 35.648,13.44 35.648,12.48 C35.648,11.52 34.88,10.688 33.92,10.688 C32.96,10.688 32.192,11.52 32.192,12.48 Z M32.192,5.44 C32.192,6.4 32.96,7.232 33.92,7.232 C34.88,7.232 35.648,6.4 35.648,5.44 C35.648,4.48 34.88,3.712 33.92,3.712 C32.96,3.712 32.192,4.48 32.192,5.44 Z M28.672,19.52 C28.672,20.48 29.44,21.248 30.4,21.248 C31.36,21.248 32.192,20.48 32.192,19.52 C32.192,18.496 31.36,17.728 30.4,17.728 C29.44,17.728 28.672,18.496 28.672,19.52 Z M28.672,16 C28.672,16.96 29.44,17.728 30.4,17.728 C31.36,17.728 32.192,16.96 32.192,16 C32.192,15.04 31.36,14.208 30.4,14.208 C29.44,14.208 28.672,15.04 28.672,16 Z M28.672,12.48 C28.672,13.44 29.44,14.208 30.4,14.208 C31.36,14.208 32.192,13.44 32.192,12.48 C32.192,11.52 31.36,10.688 30.4,10.688 C29.44,10.688 28.672,11.52 28.672,12.48 Z M28.672,8.96 C28.672,9.92 29.44,10.688 30.4,10.688 C31.36,10.688 32.192,9.92 32.192,8.96 C32.192,8 31.36,7.232 30.4,7.232 C29.44,7.232 28.672,8 28.672,8.96 Z M28.672,5.44 C28.672,6.4 29.44,7.232 30.4,7.232 C31.36,7.232 32.192,6.4 32.192,5.44 C32.192,4.48 31.36,3.712 30.4,3.712 C29.44,3.712 28.672,4.48 28.672,5.44 Z M21.632,19.52 C21.632,20.48 22.4,21.248 23.36,21.248 C24.384,21.248 25.152,20.48 25.152,19.52 C25.152,18.496 24.384,17.728 23.36,17.728 C22.4,17.728 21.632,18.496 21.632,19.52 Z M21.632,16 C21.632,16.96 22.4,17.728 23.36,17.728 C24.384,17.728 25.152,16.96 25.152,16 C25.152,15.04 24.384,14.208 23.36,14.208 C22.4,14.208 21.632,15.04 21.632,16 Z M21.632,12.48 C21.632,13.44 22.4,14.208 23.36,14.208 C24.384,14.208 25.152,13.44 25.152,12.48 C25.152,11.52 24.384,10.688 23.36,10.688 C22.4,10.688 21.632,11.52 21.632,12.48 Z M21.632,8.96 C21.632,9.92 22.4,10.688 23.36,10.688 C24.384,10.688 25.152,9.92 25.152,8.96 C25.152,8 24.384,7.232 23.36,7.232 C22.4,7.232 21.632,8 21.632,8.96 Z M21.632,5.44 C21.632,6.4 22.4,7.232 23.36,7.232 C24.384,7.232 25.152,6.4 25.152,5.44 C25.152,4.48 24.384,3.712 23.36,3.712 C22.4,3.712 21.632,4.48 21.632,5.44 Z M18.112,12.48 C18.112,13.44 18.944,14.208 19.904,14.208 C20.864,14.208 21.632,13.44 21.632,12.48 C21.632,11.52 20.864,10.688 19.904,10.688 C18.944,10.688 18.112,11.52 18.112,12.48 Z M14.592,8.96 C14.592,9.92 15.424,10.688 16.384,10.688 C17.344,10.688 18.112,9.92 18.112,8.96 C18.112,8 17.344,7.232 16.384,7.232 C15.424,7.232 14.592,8 14.592,8.96 Z M11.136,19.52 C11.136,20.48 11.904,21.248 12.864,21.248 C13.824,21.248 14.592,20.48 14.592,19.52 C14.592,18.496 13.824,17.728 12.864,17.728 C11.904,17.728 11.136,18.496 11.136,19.52 Z M11.136,16 C11.136,16.96 11.904,17.728 12.864,17.728 C13.824,17.728 14.592,16.96 14.592,16 C14.592,15.04 13.824,14.208 12.864,14.208 C11.904,14.208 11.136,15.04 11.136,16 Z M11.136,12.48 C11.136,13.44 11.904,14.208 12.864,14.208 C13.824,14.208 14.592,13.44 14.592,12.48 C14.592,11.52 13.824,10.688 12.864,10.688 C11.904,10.688 11.136,11.52 11.136,12.48 Z M11.136,8.96 C11.136,9.92 11.904,10.688 12.864,10.688 C13.824,10.688 14.592,9.92 14.592,8.96 C14.592,8 13.824,7.232 12.864,7.232 C11.904,7.232 11.136,8 11.136,8.96 Z M11.136,5.44 C11.136,6.4 11.904,7.232 12.864,7.232 C13.824,7.232 14.592,6.4 14.592,5.44 C14.592,4.48 13.824,3.712 12.864,3.712 C11.904,3.712 11.136,4.48 11.136,5.44 Z M4.096,19.52 C4.096,20.48 4.864,21.248 5.824,21.248 C6.784,21.248 7.616,20.48 7.616,19.52 C7.616,18.496 6.784,17.728 5.824,17.728 C4.864,17.728 4.096,18.496 4.096,19.52 Z M4.096,16 C4.096,16.96 4.864,17.728 5.824,17.728 C6.784,17.728 7.616,16.96 7.616,16 C7.616,15.04 6.784,14.208 5.824,14.208 C4.864,14.208 4.096,15.04 4.096,16 Z M4.096,12.48 C4.096,13.44 4.864,14.208 5.824,14.208 C6.784,14.208 7.616,13.44 7.616,12.48 C7.616,11.52 6.784,10.688 5.824,10.688 C4.864,10.688 4.096,11.52 4.096,12.48 Z M4.096,8.96 C4.096,9.92 4.864,10.688 5.824,10.688 C6.784,10.688 7.616,9.92 7.616,8.96 C7.616,8 6.784,7.232 5.824,7.232 C4.864,7.232 4.096,8 4.096,8.96 Z M4.096,5.44 C4.096,6.4 4.864,7.232 5.824,7.232 C6.784,7.232 7.616,6.4 7.616,5.44 C7.616,4.48 6.784,3.712 5.824,3.712 C4.864,3.712 4.096,4.48 4.096,5.44 Z M0,0 L60.224,0 L60.224,25.792 L0,25.792 L0,0 Z" id="n" fill="#000000"></path>
    </g>
</svg>