
<svg width="19px" height="36px" viewBox="0 0 19 36" version="1.1" xmlns="http://www.w3.org/2000/svg" xmlns:xlink="http://www.w3.org/1999/xlink">
    <polygon id="Path" fill="#000000" points="0.976 30.904 0.976 8.184 5.776 8.184 5.776 4.344 14.16 4.344 14.16 8.184 18.96 8.184 18.96 30.904 16.272 33.592 16.272 35.896 14.928 35.832 14.928 33.592 5.008 33.592 5.008 35.832 3.6 35.896 3.6 33.592"></polygon>
    <polygon id="Path" fill="#FFFFFF" points="17.04 11.192 2.896 11.192 4.56 24.184 15.376 24.184"></polygon>
    <path d="M8.4,28.152 C8.4,28.984 9.104,29.688 9.936,29.688 C10.832,29.688 11.536,28.984 11.536,28.152 C11.536,27.256 10.832,26.616 9.936,26.616 C9.104,26.616 8.4,27.256 8.4,28.152 Z" id="Path" fill="#FFFFFF"></path>
    <polygon id="Path" fill="#FFFFFF" points="7.12 9.592 12.752 9.592 12.752 5.688 7.12 5.688"></polygon>
    <polygon id="Path" fill="#000000" points="2.384 2.04 2.384 0.76 17.552 0.76 17.552 2.04"></polygon>
</svg>