
<svg width="38px" height="36px" viewBox="0 0 38 36" version="1.1" xmlns="http://www.w3.org/2000/svg" xmlns:xlink="http://www.w3.org/1999/xlink">
    <path d="M5.112,9.976 C5.112,9.144 5.816,8.376 6.712,8.376 C7.608,8.376 8.312,9.144 8.312,9.976 C8.312,10.872 7.608,11.576 6.712,11.576 C5.816,11.576 5.112,10.872 5.112,9.976 Z" id="Path"></path>
    <polygon id="Path" points="29.496 7.416 32.76 13.304 37.752 17.336 36.664 19.384 30.648 15.672 29.496 13.432 29.496 18.232 32.568 24.248 34.488 35.064 31.288 35.832 29.24 26.488 26.808 22.456 23.928 28.28 19.256 34.168 17.08 32.184 21.176 25.592 23.736 18.04 23.736 11.704 21.048 14.328 18.424 19.128 16.44 17.976 19.256 11.896 23.736 7.416"></polygon>
    <path d="M23.928,3.448 C23.928,1.976 25.144,0.76 26.616,0.76 C28.088,0.76 29.304,1.976 29.304,3.448 C29.304,4.92 28.088,6.072 26.616,6.072 C25.144,6.072 23.928,4.92 23.928,3.448 Z" id="Path"></path>
    <polygon id="Path" points="4.984 12.408 8.44 12.408 11.128 15.096 12.856 18.744 11.64 19.384 10.104 16.568 8.44 14.968 8.44 18.744 9.976 23.288 12.472 27.256 11.128 28.408 8.376 24.952 6.648 21.432 5.112 23.864 3.896 29.432 1.976 28.984 3.192 22.456 4.984 18.872 4.984 15.992 4.28 17.336 0.696 19.576 0.056 18.36 3.064 15.928"></polygon>
</svg>